<svg width="32" height="32" viewBox="0 0 32 32" fill="none" xmlns="http://www.w3.org/2000/svg">
<path d="M17.5 21.5H6.5V10L11.5 10V14.6444C11.5 18.3333 13.9713 17.8371 15.3828 18C17.6579 18.2627 17.5 20.3593 17.5 21.5Z" stroke="#313131"/>
<path d="M11.4601 11.76H9.08008" stroke="#313131"/>
<path d="M11.4601 13.8H9.08008" stroke="#313131"/>
<path d="M11.4601 15.8401H9.08008" stroke="#313131"/>
<rect x="5" y="7" width="8" height="3" fill="#313131"/>
<rect x="6" y="23" width="12" height="1" fill="#313131"/>
<path d="M15.5 16.5L15.5 10L20.5 10C20.5 11.3333 20.5 10.9556 20.5 14.6444C20.5 18.3333 22.9713 17.837 24.3828 18C26.6579 18.2627 26.5 20.3593 26.5 21.5H20" stroke="#313131"/>
<path d="M20.4601 11.76H18.0801" stroke="#313131"/>
<path d="M20.4601 13.8H18.0801" stroke="#313131"/>
<path d="M20.4601 15.84H18.0801" stroke="#313131"/>
<rect x="14" y="7" width="8" height="3" fill="#313131"/>
<rect x="20" y="23" width="7" height="1" fill="#313131"/>
</svg>
