<svg width="32" height="32" viewBox="0 0 32 32" fill="none" xmlns="http://www.w3.org/2000/svg">
<path d="M19.5 23C19.5 23 19.5 25.5 16.5 25.5C14 25.5 13.5 23.5 13.5 23C13.5 22.5 13.4706 18 13 16.5C12.5294 15 11 12.5 11 9.5C11 6.5 12.5 5 14.7647 5C19.5 5 19.5 10.5 19.5 10.5V23Z" stroke="#313131"/>
<rect x="12.5" y="15" width="7" height="1" fill="#313131"/>
<circle cx="17" cy="8.5" r="0.5" fill="#313131"/>
<circle cx="17" cy="10.5" r="0.5" fill="#313131"/>
<circle cx="17" cy="12.5" r="0.5" fill="#313131"/>
<circle cx="15" cy="8.5" r="0.5" fill="#313131"/>
<circle cx="15" cy="10.5" r="0.5" fill="#313131"/>
<circle cx="15" cy="12.5" r="0.5" fill="#313131"/>
<circle cx="13" cy="8.5" r="0.5" fill="#313131"/>
<circle cx="13" cy="10.5" r="0.5" fill="#313131"/>
<circle cx="16.5" cy="22.5" r="3" stroke="#313131"/>
</svg>
