<svg width="32" height="32" viewBox="0 0 32 32" fill="none" xmlns="http://www.w3.org/2000/svg">
<circle cx="19" cy="16" r="1.5" stroke="#313131"/>
<path d="M19 14.5V8.5" stroke="#313131" stroke-linejoin="round"/>
<path d="M17.9174 15.1249L15 13.5" stroke="#313131" stroke-linejoin="round"/>
<path d="M18 17L15 18.5" stroke="#313131" stroke-linejoin="round"/>
<path d="M19 23V17" stroke="#313131" stroke-linejoin="round"/>
<path d="M25.2787 19.375L20.0825 16.375" stroke="#313131" stroke-linejoin="round"/>
<path d="M25.5575 12L20.3613 15" stroke="#313131" stroke-linejoin="round"/>
<path d="M19 11.5L21 9.5" stroke="#313131" stroke-linejoin="round"/>
<path d="M19 20L17 22" stroke="#313131" stroke-linejoin="round"/>
<path d="M22.2553 17.6216L22.9873 20.3536" stroke="#313131" stroke-linejoin="round"/>
<path d="M22.7469 13.5473L25.6878 14.5194" stroke="#313131" stroke-linejoin="round"/>
<path d="M19 11.5L17 9.5" stroke="#313131" stroke-linejoin="round"/>
<path d="M19 20L21 22" stroke="#313131" stroke-linejoin="round"/>
<path d="M22.2553 17.6216L24.9873 16.8895" stroke="#313131" stroke-linejoin="round"/>
<path d="M22.6522 13.6772L23.6522 10.6774" stroke="#313131" stroke-linejoin="round"/>
<path d="M15 23V9C15 9 9 9.51724 9 15.7586C9 22 15 23 15 23Z" stroke="#313131" stroke-linejoin="round"/>
<path d="M7.5 17.5L4.5 18.5" stroke="#313131" stroke-linejoin="round"/>
<path d="M7.5 13.5L4.5 12.5" stroke="#313131" stroke-linejoin="round"/>
<path d="M12.5 24.5L11.5 27.5" stroke="#313131" stroke-linejoin="round"/>
<path d="M12.5 7.5L11.5 4.5" stroke="#313131" stroke-linejoin="round"/>
<path d="M9 10L7 8" stroke="#313131" stroke-linejoin="round"/>
<path d="M9 22L7 24" stroke="#313131" stroke-linejoin="round"/>
</svg>
