<svg width="103" height="32" viewBox="0 0 804 249" fill="none" xmlns="http://www.w3.org/2000/svg"><path d="M0 101.9h59.3C69.9 45.4 119 0 181.6 0c62.6 0 121.1 50.7 121.1 127.2s-.8 14.7-1.6 20.5H109.6c9 34.8 37.6 55.2 72 55.2s51.5-11.5 69.1-31.5l35.2 32.3c-23.3 26.6-58.1 45-104.3 45-46.2 0-111.7-44.6-122.3-101.1H0v-45.8.1Zm252 0c-2.5-14.3-9-27.4-18.4-36.8-12.3-12.3-30.3-20.1-52-20.1s-39.3 7.4-52.4 20.5c-9 9-16.4 21.3-20.1 36.4H252ZM338.4 1.7h51.5v196.4h93.3v49.1h-92.5c-34 0-52.4-18.4-52.4-52.4V1.7h.1ZM493 124.4C493 57.7 547.4 0 619.4 0s113.7 45 124.4 101.9h59.3v45.8h-59.3c-11 56.5-61 101.1-124.4 101.1-72.4 0-126.4-57.3-126.4-124.4Zm126.5 76.1c43 0 74.9-32.7 74.9-75.7s-32.7-76.5-74.9-76.5-74.9 32.7-74.9 76.1c0 42.1 32.7 76.1 74.9 76.1Z" fill="#003933"/></svg>