<svg width="32" height="32" viewBox="0 0 32 32" fill="none" xmlns="http://www.w3.org/2000/svg">
<circle cx="16" cy="16" r="16" fill="black" fill-opacity="0.04"/>
<path fill-rule="evenodd" clip-rule="evenodd" d="M11.6768 9.19971C11.7833 9.20004 11.8853 9.24284 11.9601 9.31863L13.114 10.4869L14.2678 9.31863C14.3427 9.24284 14.4447 9.20004 14.5512 9.19971C14.6577 9.19938 14.7599 9.24155 14.8353 9.31686L16.0071 10.4887L17.1627 9.31863C17.2379 9.24253 17.3403 9.19971 17.4473 9.19971C17.5542 9.19971 17.6567 9.24253 17.7319 9.31863L18.8857 10.4869L20.0396 9.31863C20.1147 9.24264 20.217 9.19982 20.3238 9.19971C20.4306 9.1996 20.533 9.24221 20.6082 9.31804L22.7659 11.4937C22.921 11.6501 22.9205 11.9025 22.7647 12.0582L21.6091 13.2138L22.7647 14.3694C22.9202 14.5249 22.921 14.7769 22.7665 14.9333L21.6074 16.1069L22.7647 17.2643C22.9209 17.4205 22.9209 17.6738 22.7647 17.83L21.6091 18.9856L22.7647 20.1412C22.9205 20.297 22.921 20.5493 22.7659 20.7057L20.6082 22.8814C20.533 22.9572 20.4306 22.9998 20.3238 22.9997C20.217 22.9996 20.1147 22.9568 20.0396 22.8808L18.8857 21.7125L17.7319 22.8808C17.6567 22.9569 17.5542 22.9997 17.4473 22.9997C17.3403 22.9997 17.2379 22.9569 17.1627 22.8808L16.0071 21.7107L14.8353 22.8825C14.7599 22.9579 14.6577 23 14.5512 22.9997C14.4447 22.9994 14.3427 22.9566 14.2678 22.8808L13.114 21.7125L11.9601 22.8808C11.8853 22.9566 11.7833 22.9994 11.6768 22.9997C11.5702 23 11.468 22.9579 11.3927 22.8825L9.21701 20.7069C9.14169 20.6316 9.09952 20.5293 9.09986 20.4228C9.10019 20.3163 9.14299 20.2143 9.21877 20.1395L10.3871 18.9856L9.21877 17.8317C9.14268 17.7566 9.09985 17.6541 9.09985 17.5471C9.09985 17.4402 9.14268 17.3377 9.21877 17.2626L10.3888 16.1069L9.21701 14.9351C9.14169 14.8598 9.09952 14.7575 9.09986 14.651C9.10019 14.5445 9.14299 14.4425 9.21877 14.3677L10.3871 13.2138L9.21877 12.06C9.14299 11.9851 9.10019 11.8831 9.09986 11.7766C9.09952 11.6701 9.14169 11.5678 9.21701 11.4925L11.3927 9.31686C11.468 9.24155 11.5702 9.19938 11.6768 9.19971ZM14.5542 10.1672L13.3986 11.3372C13.3234 11.4133 13.2209 11.4561 13.114 11.4561C13.007 11.4561 12.9045 11.4133 12.8294 11.3372L11.6737 10.1672L10.0673 11.7736L11.2374 12.9292C11.3135 13.0044 11.3563 13.1069 11.3563 13.2138C11.3563 13.3208 11.3135 13.4233 11.2374 13.4984L10.0673 14.654L11.2391 15.8259C11.3144 15.9012 11.3566 16.0034 11.3563 16.1099C11.356 16.2165 11.3132 16.3184 11.2374 16.3933L10.0691 17.5471L11.2374 18.701C11.3135 18.7762 11.3563 18.8787 11.3563 18.9856C11.3563 19.0925 11.3135 19.195 11.2374 19.2702L10.0673 20.4258L11.6737 22.0323L12.8294 20.8622C12.9045 20.7861 13.007 20.7433 13.114 20.7433C13.2209 20.7433 13.3234 20.7861 13.3986 20.8622L14.5542 22.0323L15.726 20.8604C15.8013 20.7851 15.9036 20.7429 16.0101 20.7433C16.1166 20.7436 16.2186 20.7864 16.2934 20.8622L17.4473 22.0305L18.6012 20.8622C18.6763 20.7861 18.7788 20.7433 18.8857 20.7433C18.9927 20.7433 19.0952 20.7861 19.1703 20.8622L20.3248 22.0311L21.9174 20.4252L20.7606 19.2684C20.6044 19.1122 20.6044 18.859 20.7606 18.7028L21.9162 17.5471L20.7606 16.3915C20.6051 16.236 20.6043 15.9841 20.7588 15.8276L21.9179 14.654L20.7606 13.4967C20.6856 13.4216 20.6434 13.3199 20.6434 13.2138C20.6434 13.1077 20.6856 13.006 20.7606 12.931L21.9174 11.7742L20.3248 10.1683L19.1703 11.3372C19.0952 11.4133 18.9927 11.4561 18.8857 11.4561C18.7788 11.4561 18.6763 11.4133 18.6012 11.3372L17.4473 10.1689L16.2934 11.3372C16.2186 11.413 16.1166 11.4558 16.0101 11.4561C15.9036 11.4565 15.8013 11.4143 15.726 11.339L14.5542 10.1672Z" fill="black"/>
</svg>
